<svg xmlns="http://www.w3.org/2000/svg" viewBox="0 0 522.73 117.3"><defs><style>.cls-1{fill:#fff;}</style></defs><title>лого</title><g id="Шар_2" data-name="Шар 2"><g id="Layer_3" data-name="Layer 3"><path class="cls-1" d="M129.12,1.79h16.39L161,67.71V1.79h15.18V115.45H159.82L144.87,51.61v63.83H129.12Z"/><path class="cls-1" d="M208.22,27.86l-11.58,87.58H180.13L197,1.79h22.48l16.86,113.65H219.81Z"/><path class="cls-1" d="M286.8,93.38q0,23.87-23.58,23.92T239.71,93.38V1.79H256.1V93.38q0,7.7,7.13,7.7t7.18-7.7V1.79H286.8Z"/><path class="cls-1" d="M337.81,1.79V18H322.46v97.49H306.07V18H290.72V1.79Z"/><path class="cls-1" d="M342.6,1.79H359V115.45H342.6Z"/><path class="cls-1" d="M414.34,82.14V93.38q0,23.87-23.58,23.92T367.25,93.38V23.87Q367.25,0,390.77,0t23.58,23.87V39.16H397.95V23.87q0-7.65-7.12-7.7h-.12q-7.07,0-7.07,7.7V93.38q0,7.7,7.13,7.7t7.18-7.7V82.14Z"/><path class="cls-1" d="M468.25,93.38q0,23.87-23.58,23.92T421.15,93.38V1.79h16.39V93.38q0,7.7,7.13,7.7t7.18-7.7V1.79h16.39Z"/><path class="cls-1" d="M506.34,35.33V23.92q0-7.7-7.18-7.7T492,23.92V26q0,8.23,15.35,19.23t15.35,26.65V93.43q0,23.87-23.52,23.87T475.64,93.43V78.14H492V93.43q0,7.65,7.13,7.7h.12q7.07,0,7.07-7.7V72.23q0-7.59-15.35-18.59T475.64,27.4V23.92Q475.64,0,499.16,0t23.58,23.92V35.33Z"/><path class="cls-1" d="M46,53.42l18.29,18.3a22.72,22.72,0,0,0,11.8,6.55V70A15.71,15.71,0,0,1,70,66L51.74,47.73a22.71,22.71,0,0,0-11.83-6.55v8.31A15.7,15.7,0,0,1,46,53.42Z"/><path class="cls-1" d="M20.85,47.77,0,68.69V80L.07,80,26.55,53.45a16.24,16.24,0,0,1,5.31-3.64V41.36A23,23,0,0,0,20.85,47.77Z"/><path class="cls-1" d="M89.5,66a16.2,16.2,0,0,1-5.31,3.62V78.1a23,23,0,0,0,11-6.38l21-21v-11l-.21-.21Z"/><path class="cls-1" d="M20.52,11.86,0,32.46V43.73l.07.07L26.23,17.54a16.66,16.66,0,0,1,5.63-3.82V5.29A23.48,23.48,0,0,0,20.52,11.86Z"/><path class="cls-1" d="M52.06,11.82A23.17,23.17,0,0,0,39.91,5.12v8.3a16.11,16.11,0,0,1,6.46,4.1L64,35.17a23.18,23.18,0,0,0,12.13,6.7v-8.3a16.13,16.13,0,0,1-6.43-4.09Z"/><path class="cls-1" d="M116,3.3,89.83,29.48a16.62,16.62,0,0,1-5.63,3.8V41.7a23.46,23.46,0,0,0,11.32-6.54l20.69-20.69v-11Z"/><path class="cls-1" d="M88.91,102.86a15.44,15.44,0,0,1-4.71,3.3v8.48a22.15,22.15,0,0,0,10.4-6.09l21.61-21.61V76l-.21-.21Z"/><path class="cls-1" d="M45.4,89l19.53,19.54a21.88,21.88,0,0,0,11.21,6.26v-8.33a14.94,14.94,0,0,1-5.51-3.62L51.1,83.32A22.05,22.05,0,0,0,39.91,77v8.34A15,15,0,0,1,45.4,89Z"/><path class="cls-1" d="M21.47,83.28,0,104.67v11.27l0,0L27.15,89a15.56,15.56,0,0,1,4.71-3.3V77.21A22.3,22.3,0,0,0,21.47,83.28Z"/></g></g></svg>